# xmcd
#
# Track frame offsets: 
#        150
#        14871
#        32233
#        50811
#        66864
#        78850
#        97232
#        114882
#        134554
#        149214
#        164694
#        181912
#        196555
#        216260
#        231099
#        251732
#        269212
#        284827
#        299569
#        310132
#
# Disc length: 4388 seconds
#
# Revision: 2
# Processed by: cddbd v1.5.1PL0 Copyright (c) Steve Scherf et al.
# Submitted via: ExactAudioCopy v0.90b4
#
DISCID=50112214
DTITLE=Various Artist - Fresh Crop
DYEAR=2000
DGENRE=Country
TTITLE0=Chely Wright - Single White Female
TTITLE1=Mulberry Lane - Harmless
TTITLE2=Mark Chestnutt - Don't Want To Miss A Thing
TTITLE3=Redmon And Vale - Squeezin' The Love Outta You
TTITLE4=Alecia Elliott - I'm Diggin It
TTITLE5=Mark Willis - Back At One
TTITLE6=Terri Clark - Unsung Hero
TTITLE7=The Mavericks - Dance The Night Away
TTITLE8=Rebecca Lynn Howard - When My Dreams Come True
TTITLE9=Dixie Chicks - Tonight The Heartache's On Me
TTITLE10=Chris LeDoux - Life Is A Highway
TTITLE11=Jessica Andrews - You Go First (Do You Wanna Kiss)
TTITLE12=Sammhy Kershaw - More Than I Can Say
TTITLE13=Matraca Berg - Back In The Saddle
TTITLE14=Lucinda Williams - Right In Time
TTITLE15=Allison Moorer - A Soft Place To Fall
TTITLE16=Linda Davis - I'm Yours
TTITLE17=Wynonna Judd - Change The World
TTITLE18=Dwight Yoakam - Crazy Little Thing Called Love
TTITLE19=Lisa Angelle - I Wear Your Love (Dance Remix)
EXTD=
EXTT0=
EXTT1=
EXTT2=
EXTT3=
EXTT4=
EXTT5=
EXTT6=
EXTT7=
EXTT8=
EXTT9=
EXTT10=
EXTT11=
EXTT12=
EXTT13=
EXTT14=
EXTT15=
EXTT16=
EXTT17=
EXTT18=
EXTT19=
PLAYORDER=
